<svg width="350" height="322" viewBox="0 0 350 322" fill="none" xmlns="http://www.w3.org/2000/svg">
<path d="M142.981 185.909C142.981 185.909 143.776 163.184 142.981 160.376C142.185 157.567 120.256 138.053 120.256 138.053C120.256 138.053 114.275 97.3865 103.915 88.2141L19.3892 98.5846C19.3892 98.5846 13.4084 104.173 13.8111 122.154C14.2137 140.135 15.0092 148.463 10.6194 156.438C6.2296 164.412 1.84963 187.942 10.2266 199.903C18.6035 211.865 21.3827 214.634 28.9642 214.251C36.5457 213.868 142.981 185.909 142.981 185.909Z" fill="#FBA274"/>
<path opacity="0.7" d="M142.981 185.909C142.981 185.909 143.776 163.184 142.981 160.376C142.185 157.567 120.256 138.053 120.256 138.053C120.256 138.053 114.275 97.3865 103.915 88.2141L19.3892 98.5846C19.3892 98.5846 13.4084 104.173 13.8111 122.154C14.2137 140.135 15.0092 148.463 10.6194 156.438C6.2296 164.412 1.84963 187.942 10.2266 199.903C18.6035 211.865 21.3827 214.634 28.9642 214.251C36.5457 213.868 142.981 185.909 142.981 185.909Z" fill="white"/>
<path d="M142.981 160.385L4.24585 187.5C4.24585 187.5 7.03488 217.806 26.1752 214.997C45.3154 212.189 143.786 189.886 143.393 187.893C143.001 185.899 142.981 160.385 142.981 160.385Z" fill="#FBA274"/>
<path opacity="0.5" d="M142.981 160.385L4.24585 187.5C4.24585 187.5 7.03488 217.806 26.1752 214.997C45.3154 212.189 143.786 189.886 143.393 187.893C143.001 185.899 142.981 160.385 142.981 160.385Z" fill="white"/>
<path d="M285.507 102.12C285.507 102.12 282.433 186.302 285.507 187.618C288.58 188.934 319.702 179.761 321.018 177.532C322.334 175.303 328.03 93.36 321.018 93.36C314.006 93.36 285.507 102.12 285.507 102.12Z" fill="#FBA274"/>
<path d="M282.433 102.562C285.065 104.32 282.875 182.354 277.611 188.492C272.347 194.63 231.572 202.525 230.698 198.136C229.824 193.746 231.14 84.5903 231.14 84.5903C231.14 84.5903 279.801 100.814 282.433 102.562ZM321.018 93.36C321.018 93.36 278.053 74.5046 271.031 74.9465C264.009 75.3884 226.318 81.5164 231.14 86.7803C235.962 92.0441 278.927 101.688 285.507 102.12C292.086 102.552 321.018 93.36 321.018 93.36Z" fill="#FBA274"/>
<path opacity="0.5" d="M285.507 102.12C285.507 102.12 282.433 186.302 285.507 187.618C288.58 188.934 319.702 179.761 321.018 177.532C322.334 175.303 328.03 93.36 321.018 93.36C314.006 93.36 285.507 102.12 285.507 102.12Z" fill="white"/>
<path opacity="0.7" d="M282.433 102.562C285.065 104.32 282.875 182.354 277.611 188.492C272.347 194.63 231.572 202.525 230.698 198.136C229.824 193.746 231.14 84.5903 231.14 84.5903C231.14 84.5903 279.801 100.814 282.433 102.562ZM321.018 93.36C321.018 93.36 278.053 74.5046 271.031 74.9465C264.009 75.3884 226.318 81.5164 231.14 86.7803C235.962 92.0441 278.927 101.688 285.507 102.12C292.086 102.552 321.018 93.36 321.018 93.36Z" fill="white"/>
<path d="M23.5629 97.9855C23.5629 97.9855 77.1831 89.147 104.681 88.165C114.501 97.9855 117.3 124.246 119.755 137.012C119.755 137.012 142.981 159.01 142.981 160.837C142.981 162.664 143.639 190.299 143.639 190.299" stroke="#263238" stroke-linecap="round" stroke-linejoin="round"/>
<path d="M125.962 8.29437V142.502" stroke="#263238" stroke-linecap="round" stroke-linejoin="round"/>
<path d="M11.8666 155.455L73.9031 145.37L118.665 137.012" stroke="#263238" stroke-linecap="round" stroke-linejoin="round"/>
<path d="M3.80389 186.96L137.265 161.446" stroke="#263238" stroke-linecap="round" stroke-linejoin="round"/>
<path d="M48.7035 149.543C48.7035 149.543 70.3087 171.149 69.8177 174.095L68.8356 205.03" stroke="#263238" stroke-linecap="round" stroke-linejoin="round"/>
<path d="M23.3566 215.547L135.802 190.986" stroke="#263238" stroke-linecap="round" stroke-linejoin="round"/>
<path d="M231.857 142.669V85.2188L281.942 102.405V180.969" stroke="#263238" stroke-linecap="round" stroke-linejoin="round"/>
<path d="M231.366 147.746V202.083" stroke="#263238" stroke-linecap="round" stroke-linejoin="round"/>
<path d="M281.942 102.405L322.206 92.5842V173.604" stroke="#263238" stroke-linecap="round" stroke-linejoin="round"/>
<path d="M231.857 85.2188L275.067 75.8893L322.206 92.5842L281.942 102.405L231.857 85.2188Z" stroke="#263238" stroke-linecap="round" stroke-linejoin="round"/>
<path d="M255.426 93.5663V192.921" stroke="#263238" stroke-linecap="round" stroke-linejoin="round"/>
<path d="M261.387 139.644C261.387 141.471 260.582 142.954 259.6 142.954C258.618 142.954 257.813 141.471 257.813 139.644C257.813 137.818 258.608 136.335 259.6 136.335C260.592 136.335 261.387 137.818 261.387 139.644Z" fill="#263238"/>
<path d="M252.971 136.58C252.971 138.417 252.176 139.9 251.184 139.9C250.192 139.9 249.406 138.417 249.406 136.58C249.406 134.744 250.202 133.271 251.184 133.271C252.166 133.271 252.971 134.754 252.971 136.58Z" fill="#263238"/>
<path d="M143.639 168.036L214.995 204.048" stroke="#263238" stroke-linecap="round" stroke-linejoin="round"/>
<path d="M283.503 51.4656C282.093 53.1037 281.141 55.0857 280.744 57.2106L275.195 60.3237V45.5929L275.303 45.7402L284.142 39.2782C287.319 39.7606 290.569 39.2567 293.451 37.8346C297.989 35.3893 301.308 27.032 301.308 27.032C301.308 27.032 290.505 25.8143 286.832 30.3514C284.825 32.7041 283.755 35.7146 283.827 38.8069L275.205 45.1215V34.2698C276.821 33.5218 278.25 32.422 279.387 31.0508C280.524 29.6796 281.339 28.0716 281.775 26.3446C283.346 20.246 274.969 8.20599 274.969 8.20599C274.969 8.20599 266.248 20.5897 267.997 26.8651C268.403 28.5512 269.221 30.1102 270.378 31.4024C271.535 32.6947 272.994 33.6798 274.625 34.2698V57.8391L268.399 52.6538C268.532 51.0118 268.315 49.3604 267.763 47.8082C267.211 46.2561 266.337 44.8384 265.198 43.6484C261.014 38.9345 249.848 39.2881 249.848 39.2881C249.848 39.2881 254.562 48.706 258.569 51.8486C262.075 54.5885 266.916 53.4689 268.085 53.1449L274.625 58.5953V65.7545H264.903L268.831 90.5514H280.763L284.691 65.7545H275.156V61.021L281.254 57.6034C284.418 58.513 287.802 58.2658 290.8 56.9061C295.71 54.4608 299.687 49.2265 299.687 49.2265C299.687 49.2265 288.04 46.2312 283.503 51.4656Z" fill="#263238"/>
<path d="M199.754 240.384L156.887 252.934C156.681 252.995 156.496 253.111 156.351 253.269C156.206 253.427 156.107 253.621 156.065 253.831C156.023 254.042 156.038 254.259 156.11 254.461C156.183 254.663 156.308 254.841 156.474 254.977L172.443 268.038C173.375 268.804 174.486 269.323 175.672 269.546C176.858 269.769 178.081 269.69 179.229 269.315L218.511 256.47C218.7 256.402 218.869 256.286 219.001 256.135C219.133 255.983 219.224 255.8 219.266 255.603C219.307 255.406 219.297 255.202 219.237 255.01C219.177 254.818 219.069 254.644 218.923 254.506L203.868 241.248C203.31 240.769 202.641 240.439 201.922 240.288C201.202 240.137 200.457 240.17 199.754 240.384Z" fill="#263238"/>
<path d="M178.875 241.091C177.724 241.568 176.695 242.299 175.866 243.229C175.037 244.159 174.428 245.264 174.085 246.462C173.743 247.66 173.675 248.92 173.887 250.147C174.099 251.375 174.586 252.539 175.31 253.553L175.389 253.671C178.276 257.422 192.702 259.436 199.331 257.707C205.96 255.979 206.952 251.216 202.788 247.612C200.245 245.412 191.003 240.403 184.041 240.118C182.267 240.038 180.498 240.371 178.875 241.091Z" fill="white" stroke="#263238" stroke-linecap="round" stroke-linejoin="round"/>
<path d="M244.133 261.498L212.903 234.226C212.552 233.919 212.289 233.523 212.143 233.08C211.997 232.636 211.973 232.162 212.073 231.706C212.174 231.25 212.395 230.829 212.714 230.488C213.032 230.147 213.437 229.898 213.885 229.768L277.208 212.218C278.658 211.817 280.184 211.773 281.654 212.089C283.125 212.405 284.497 213.073 285.654 214.035L316.314 239.402L244.133 261.498Z" fill="#FBA274" stroke="#263238" stroke-linecap="round" stroke-linejoin="round"/>
<path d="M277.67 236.328L280.145 238.488L285.507 237.084L283.002 234.894L277.67 236.328Z" fill="#263238"/>
<path d="M266.052 226.163L271.444 224.779L269.038 222.667L263.666 224.072L266.052 226.163Z" fill="#263238"/>
<path d="M270.187 222.373L272.602 224.484L277.994 223.109L275.558 220.978L270.187 222.373Z" fill="#263238"/>
<path d="M280.046 223.6L282.629 225.859L287.5 224.612L284.809 222.383L280.046 223.6Z" fill="#263238"/>
<path d="M283.533 226.645L286.116 228.913L291.134 227.627L288.433 225.388L283.533 226.645Z" fill="#263238"/>
<path d="M295.749 231.467L290.613 232.841L293.157 235.071L298.421 233.686L295.749 231.467Z" fill="#263238"/>
<path d="M289.474 233.156L284.142 234.589L286.646 236.779L292.008 235.365L289.474 233.156Z" fill="#263238"/>
<path d="M287.009 229.699L289.729 232.066L294.826 230.701L292.067 228.403L287.009 229.699Z" fill="#263238"/>
<path d="M276.089 227.538L281.48 226.154L278.888 223.895L273.496 225.27L276.089 227.538Z" fill="#263238"/>
<path d="M256.232 241.081L253.128 238.361L247.737 239.735L250.909 242.515L256.232 241.081Z" fill="#263238"/>
<path d="M252.235 237.575L249.642 235.306L244.25 236.691L246.833 238.95L252.235 237.575Z" fill="#263238"/>
<path d="M248.748 234.531L246.156 232.262L240.764 233.637L243.357 235.905L248.748 234.531Z" fill="#263238"/>
<path d="M259.512 227.833L264.903 226.458L262.517 224.366L257.145 225.771L259.512 227.833Z" fill="#263238"/>
<path d="M259.492 243.929L257.125 241.857L251.793 243.29L254.13 245.333L259.492 243.929Z" fill="#263238"/>
<path d="M252.961 229.512L258.353 228.128L255.996 226.065L250.624 227.46L252.961 229.512Z" fill="#263238"/>
<path d="M246.411 231.182L251.812 229.807L249.475 227.764L244.103 229.159L246.411 231.182Z" fill="#263238"/>
<path d="M239.87 232.851L245.262 231.476L242.954 229.463L237.582 230.858L239.87 232.851Z" fill="#263238"/>
<path d="M267.378 234.717L270.314 237.29L275.647 235.856L272.769 233.332L267.378 234.717Z" fill="#263238"/>
<path d="M266.956 226.949L269.538 229.208L274.93 227.833L272.347 225.564L266.956 226.949Z" fill="#263238"/>
<path d="M286.4 237.86L281.038 239.274L283.778 241.67L289.101 240.226L286.4 237.86Z" fill="#263238"/>
<path d="M273.025 232.262L278.416 230.877L275.824 228.619L270.432 229.993L273.025 232.262Z" fill="#263238"/>
<path d="M262.988 230.887L268.389 229.502L265.797 227.244L260.405 228.619L262.988 230.887Z" fill="#263238"/>
<path d="M276.982 228.324L279.565 230.583L284.967 229.208L282.374 226.939L276.982 228.324Z" fill="#263238"/>
<path d="M263.253 247.219L260.386 244.705L255.024 246.119L257.931 248.662L263.253 247.219Z" fill="#263238"/>
<path d="M279.31 231.663L273.918 233.038L276.786 235.552L282.119 234.118L279.31 231.663Z" fill="#263238"/>
<path d="M285.86 229.993L280.469 231.368L283.258 233.814L288.59 232.38L285.86 229.993Z" fill="#263238"/>
<path d="M256.448 232.557L261.839 231.182L259.246 228.913L253.855 230.298L256.448 232.557Z" fill="#263238"/>
<path d="M273.388 241.287L268.026 242.691L270.854 245.166L276.177 243.723L273.388 241.287Z" fill="#263238"/>
<path d="M279.889 239.569L274.537 240.983L277.316 243.418L282.639 241.975L279.889 239.569Z" fill="#263238"/>
<path d="M249.897 234.236L255.289 232.851L252.706 230.583L247.314 231.967L249.897 234.236Z" fill="#263238"/>
<path d="M269.715 245.471L266.887 242.996L261.525 244.41L264.392 246.914L269.715 245.471Z" fill="#263238"/>
<path d="M276.531 236.632L271.198 238.066L273.643 240.197L278.996 238.793L276.531 236.632Z" fill="#263238"/>
<path d="M258.775 235.905L256.192 233.637L250.801 235.012L253.384 237.28L258.775 235.905Z" fill="#263238"/>
<path d="M262.703 239.343L259.669 236.681L254.277 238.066L257.371 240.776L262.703 239.343Z" fill="#263238"/>
<path d="M265.993 242.22L263.597 240.118L258.264 241.552L260.631 243.624L265.993 242.22Z" fill="#263238"/>
<path d="M240.293 240.629L239.134 240.924L240.038 241.709L241.187 241.415L240.293 240.629Z" fill="#263238"/>
<path d="M249.77 242.819L246.578 240.03L241.187 241.415L244.437 244.253L249.77 242.819Z" fill="#263238"/>
<path d="M252.981 245.638L250.654 243.595L245.321 245.029L247.629 247.052L252.981 245.638Z" fill="#263238"/>
<path d="M269.175 237.595L266.219 235.012L260.828 236.387L263.843 239.028L269.175 237.595Z" fill="#263238"/>
<path d="M244.437 244.253L243.298 244.557L244.182 245.333L245.321 245.029L244.437 244.253Z" fill="#263238"/>
<path d="M245.684 239.244L243.092 236.986L237.7 238.361L240.293 240.629L245.684 239.244Z" fill="#263238"/>
<path d="M272.494 240.501L270.059 238.37L264.736 239.814L267.142 241.916L272.494 240.501Z" fill="#263238"/>
<path d="M236.806 237.575L235.657 237.87L236.551 238.655L237.7 238.361L236.806 237.575Z" fill="#263238"/>
<path d="M259.934 235.601L265.325 234.226L262.733 231.967L257.341 233.342L259.934 235.601Z" fill="#263238"/>
<path d="M260.317 252.05L257.685 249.743L252.362 251.186L255.142 253.622L260.317 252.05Z" fill="#263238"/>
<path d="M251.223 251.491L245.753 252.974L248.758 255.556L254.032 253.956L251.223 251.491Z" fill="#263238"/>
<path d="M297.586 238.95L299.138 240.305L304.451 238.695L302.997 237.487L297.586 238.95Z" fill="#263238"/>
<path d="M251.469 250.41L250.329 250.715L251.223 251.491L252.362 251.186L251.469 250.41Z" fill="#263238"/>
<path d="M269.283 230.288L263.892 231.673L266.474 233.932L271.866 232.557L269.283 230.288Z" fill="#263238"/>
<path d="M247.629 247.052L246.48 247.346L247.373 248.132L248.522 247.828L247.629 247.052Z" fill="#263238"/>
<path d="M242.198 236.2L239.615 233.932L234.214 235.316L236.807 237.575L242.198 236.2Z" fill="#263238"/>
<path d="M256.791 248.967L253.875 246.413L248.522 247.828L251.469 250.41L256.791 248.967Z" fill="#263238"/>
<path d="M224.059 234.373L226.318 236.318L232.171 234.825L229.912 232.851L224.059 234.373Z" fill="#263238"/>
<path d="M287.54 237.555L290.24 239.922L295.563 238.478L292.902 236.151L287.54 237.555Z" fill="#263238"/>
<path d="M289.985 241.002L284.662 242.446L286.567 244.106L291.743 242.534L289.985 241.002Z" fill="#263238"/>
<path d="M296.447 239.254L291.124 240.698L292.852 242.2L298.028 240.639L296.447 239.254Z" fill="#263238"/>
<path d="M299.344 234.452L294.041 235.847L296.702 238.174L302.074 236.721L299.344 234.452Z" fill="#263238"/>
<path d="M233.32 234.531L232.171 234.825L233.065 235.611L234.214 235.316L233.32 234.531Z" fill="#263238"/>
<path d="M270.609 246.247L265.286 247.69L267.712 249.821L272.887 248.25L270.609 246.247Z" fill="#263238"/>
<path d="M279.143 222.815L283.876 221.607L281.313 219.476L276.707 220.674L279.143 222.815Z" fill="#263238"/>
<path d="M283.533 242.75L278.2 244.194L280.282 246.011L285.458 244.44L283.533 242.75Z" fill="#263238"/>
<path d="M277.071 244.498L271.748 245.942L273.997 247.916L279.172 246.345L277.071 244.498Z" fill="#263238"/>
<path d="M241.805 249.595L244.85 252.198L250.329 250.715L247.373 248.132L241.805 249.595Z" fill="#263238"/>
<path d="M236.433 231.152L231.062 232.557L233.32 234.531L238.712 233.146L236.433 231.152Z" fill="#263238"/>
<path d="M227.231 237.104L229.863 239.352L235.657 237.87L233.065 235.611L227.231 237.104Z" fill="#263238"/>
<path d="M266.602 250.155L264.147 247.995L258.824 249.438L261.427 251.717L266.602 250.155Z" fill="#263238"/>
<path d="M238.594 246.836L240.902 248.819L246.48 247.346L244.182 245.333L238.594 246.836Z" fill="#263238"/>
<path d="M234.312 243.173L237.69 246.07L243.298 244.557L240.037 241.709L234.312 243.173Z" fill="#263238"/>
<path d="M230.777 240.138L233.399 242.387L239.134 240.924L236.551 238.655L230.777 240.138Z" fill="#263238"/>
<path d="M262.91 209.282L244.133 261.498L316.314 239.402L339.304 188.924C339.486 188.521 339.549 188.075 339.487 187.637C339.424 187.199 339.238 186.789 338.951 186.453C338.663 186.117 338.286 185.87 337.863 185.741C337.441 185.611 336.99 185.605 336.564 185.722L268.115 204.47C266.925 204.796 265.83 205.403 264.924 206.24C264.019 207.078 263.327 208.121 262.91 209.282Z" fill="#FBA274" stroke="#263238" stroke-linecap="round" stroke-linejoin="round"/>
<path d="M300.63 218.955C301.612 221.204 299.913 224.052 296.908 225.309C293.903 226.566 290.712 225.761 289.769 223.512C288.826 221.263 290.486 218.415 293.491 217.158C296.496 215.901 299.688 216.706 300.63 218.955Z" fill="#263238"/>
<path d="M122.456 258.984L70.0828 271.269L102 321.266L157.24 309.953L122.456 258.984Z" fill="white" stroke="#263238" stroke-linecap="round" stroke-linejoin="round"/>
<path d="M87.0037 261.007L125.304 308.637L177.353 291.942L135.124 248.24L87.0037 261.007Z" fill="white" stroke="#263238" stroke-linecap="round" stroke-linejoin="round"/>
<path d="M101.302 268.048L134.437 258.247" stroke="#263238" stroke-linecap="round" stroke-linejoin="round"/>
<path d="M106.399 272.634L139.534 262.833" stroke="#263238" stroke-linecap="round" stroke-linejoin="round"/>
<path d="M111.496 277.221L144.631 267.42" stroke="#263238" stroke-linecap="round" stroke-linejoin="round"/>
<path d="M116.593 281.807L149.737 272.016" stroke="#263238" stroke-linecap="round" stroke-linejoin="round"/>
<path d="M121.69 286.403L154.834 276.602" stroke="#263238" stroke-linecap="round" stroke-linejoin="round"/>
<path d="M126.787 290.989L159.931 281.188" stroke="#263238" stroke-linecap="round" stroke-linejoin="round"/>
<path d="M131.893 295.575L165.028 285.774" stroke="#263238" stroke-linecap="round" stroke-linejoin="round"/>
<path d="M148.382 120.082L78.6562 135.304C78.6562 135.304 82.0934 190.299 87.9857 212.886C87.9857 212.886 94.1236 234.629 97.6197 241.366L163.368 224.121C163.368 224.121 153.783 198.646 148.382 120.082Z" fill="#263238" stroke="#263238" stroke-linecap="round" stroke-linejoin="round"/>
<path d="M197.397 127.977C191.976 123.136 185.425 124.275 178.875 121.712C174.223 119.996 169.471 118.563 164.645 117.42L163.496 117.155C163.496 117.155 160.648 111.175 155.522 112.029C150.395 112.883 129.036 127.447 127.327 131.375C125.618 135.304 125.618 173.25 125.903 186.371C126.089 195.288 127.867 202.349 131.147 207.22L125.962 234.167L198.536 214.85C198.536 214.85 193.576 212.297 193.4 197.762C193.4 194.954 194.539 187.51 195.973 178.966C196.836 173.31 197.122 167.582 196.827 161.868C199.36 162.755 201.834 163.805 204.232 165.011C208.219 166.975 231.857 176.687 231.857 176.687L238.731 164.156C238.731 164.156 202.808 132.819 197.397 127.977Z" fill="#FBA274" stroke="#263238" stroke-linecap="round" stroke-linejoin="round"/>
<path d="M17.9357 262.313L348.722 176.059" stroke="#263238" stroke-linecap="round" stroke-linejoin="round"/>
<path d="M132.385 183.65C132.385 183.65 138.974 168.153 142.068 154.984" stroke="#263238" stroke-linecap="round" stroke-linejoin="round"/>
<path d="M130.067 188.335C130.067 188.335 142.067 176.324 145.554 164.314" stroke="#263238" stroke-linecap="round" stroke-linejoin="round"/>
<path d="M164.517 199.55C164.517 199.55 176.243 193.432 181.34 187.824" stroke="#263238" stroke-linecap="round" stroke-linejoin="round"/>
<path d="M143.766 129.912C143.766 129.912 144.415 129.971 146.713 134.528C149.011 139.085 151.819 146.489 151.819 146.489L156.946 141.363L161.787 147.913" stroke="#263238" stroke-linecap="round" stroke-linejoin="round"/>
<path d="M174.191 123.823C174.191 123.823 176.312 126.269 178.021 131.68C179.729 137.091 179.729 138.23 179.729 138.23L172.855 136.806L171.716 146.489" stroke="#263238" stroke-linecap="round" stroke-linejoin="round"/>
<path d="M195.688 145.35L196.817 161.878L199.39 140.793" stroke="#263238" stroke-linecap="round" stroke-linejoin="round"/>
<path d="M167.64 111.823L165.568 119.443C167.59 123.586 169.044 127.983 169.889 132.515C171.627 142.08 169.801 160.994 169.801 160.994C169.801 160.994 161.748 143.199 157.093 134.724C152.438 126.249 150.729 122.007 150.307 117.774C149.885 113.541 152.851 102.523 153.695 101.246C154.54 99.9693 167.64 111.823 167.64 111.823Z" fill="white" stroke="#263238" stroke-linecap="round" stroke-linejoin="round"/>
<path d="M183.746 44.8759C179.014 40.8699 173.293 38.2094 167.18 37.1728C161.068 36.1362 154.789 36.7616 149.001 38.9836C128.662 46.5651 128.25 70.2915 128.25 83.8537C128.25 97.4159 122.603 119.61 112.017 129.775C101.43 139.939 97.2858 150.8 99.8588 162.241C102.432 173.682 112.989 180.459 120.619 179.614C128.25 178.769 123.566 144.869 131.216 138.093C138.866 131.316 148.588 125.326 154.942 106.313C158.581 101.738 161.052 96.3447 162.141 90.6005C163.84 81.2808 170.194 66.4517 176.97 65.1849C183.746 63.918 185.877 84.2466 183.334 91.8771C180.79 99.5077 168.072 108.405 167.621 111.793C167.186 114.4 166.478 116.955 165.509 119.414C165.509 119.414 172.875 123.961 185.848 125.306C187.674 125.536 189.521 125.536 191.347 125.306C191.347 125.306 194.391 122.782 202.886 108.788C211.234 95.0394 203.367 60.8638 194.048 52.811C184.728 44.7581 183.746 44.8759 183.746 44.8759Z" fill="#263238" stroke="#263238" stroke-linecap="round" stroke-linejoin="round"/>
<path d="M114.599 133.978C113.225 134.757 111.805 135.452 110.347 136.06" stroke="white" stroke-linecap="round" stroke-linejoin="round"/>
<path d="M110.985 131.042C110.985 131.042 99.2008 137.602 99.5544 155.23C99.8584 162.436 102.72 169.299 107.627 174.586" stroke="white" stroke-linecap="round" stroke-linejoin="round"/>
<path d="M143.059 68.0623C138.571 85.5134 136.705 107.757 130.548 118.835C127.83 123.489 124.147 127.508 119.745 130.619" stroke="white" stroke-linecap="round" stroke-linejoin="round"/>
<path d="M185.524 58.5658C185.524 58.5658 186.506 53.2725 180.22 47.9694C174.24 42.9315 151.79 46.0053 145.043 61.6592" stroke="white" stroke-linecap="round" stroke-linejoin="round"/>
<path d="M168.171 39.0621C163.273 37.2886 157.891 37.3936 153.067 39.3568C147.202 41.5714 142.075 45.3866 138.27 50.3689C134.465 55.3511 132.133 61.3007 131.54 67.5418C130.214 79.4639 131.874 97.9855 126.571 109.593" stroke="white" stroke-linecap="round" stroke-linejoin="round"/>
<path d="M176.577 43.9724C175.532 43.0229 174.398 42.1776 173.189 41.4485" stroke="white" stroke-linecap="round" stroke-linejoin="round"/>
<path d="M202.739 105.596C203.073 103.945 203.312 102.276 203.456 100.598" stroke="white" stroke-linecap="round" stroke-linejoin="round"/>
<path d="M203.603 96.0214C203.102 75.467 187.507 62.8868 187.507 62.8868" stroke="white" stroke-linecap="round" stroke-linejoin="round"/>
<path d="M185.013 61.3941C185.013 61.3941 192.221 77.107 188.833 89.3631C185.445 101.619 178.237 111.823 173.12 114.366C168.004 116.91 154.903 106.313 154.903 106.313C154.903 106.313 159.136 96.9936 159.136 87.2418C159.136 77.49 162.534 65.6366 170.154 61.8262C172.461 60.7119 174.977 60.0973 177.538 60.0229C180.098 59.9484 182.645 60.4157 185.013 61.3941Z" fill="white" stroke="#263238" stroke-linecap="round" stroke-linejoin="round"/>
<path d="M176.371 86.2009C176.14 88.0095 176.273 89.846 176.764 91.6022C177.579 93.8511 179.621 95.2751 177.991 95.6875C176.436 95.9334 174.858 96.0026 173.287 95.8938" stroke="#263238" stroke-linecap="round" stroke-linejoin="round"/>
<path d="M170.753 102.356C172.21 103.179 173.91 103.464 175.556 103.161" stroke="#263238" stroke-linecap="round" stroke-linejoin="round"/>
<path d="M169.398 86.2696C169.398 87.399 168.897 88.3123 168.279 88.3123C167.66 88.3123 167.149 87.399 167.149 86.2696C167.149 85.1402 167.65 84.2269 168.279 84.2269C168.907 84.2269 169.398 85.1402 169.398 86.2696Z" fill="#263238"/>
<path d="M183.422 85.6312C183.422 86.7508 182.921 87.6739 182.302 87.6739C181.684 87.6739 181.173 86.7508 181.173 85.6312C181.173 84.5117 181.684 83.5886 182.302 83.5886C182.921 83.5886 183.422 84.5019 183.422 85.6312Z" fill="#263238"/>
<path d="M186.564 79.6309C186.389 79.6758 186.204 79.6712 186.03 79.6174C185.857 79.5637 185.702 79.463 185.582 79.3264C185.321 78.9454 184.974 78.6302 184.571 78.4053C184.167 78.1804 183.717 78.052 183.255 78.0301C182.217 78.2419 181.302 78.8473 180.702 79.7192C180.553 79.9341 180.325 80.0812 180.068 80.1282C179.812 80.1752 179.546 80.1181 179.332 79.9697C179.117 79.8212 178.97 79.5935 178.923 79.3366C178.876 79.0796 178.933 78.8146 179.081 78.5997C179.15 78.5015 180.76 76.2035 183.147 76.066C183.91 76.059 184.665 76.2334 185.348 76.5749C186.031 76.9163 186.623 77.4151 187.075 78.0301C187.246 78.2268 187.331 78.4832 187.313 78.7428C187.294 79.0024 187.173 79.2441 186.977 79.4148C186.857 79.5171 186.716 79.5909 186.564 79.6309Z" fill="#263238"/>
<path d="M171.303 80.3085C171.038 80.3129 170.781 80.2223 170.577 80.0532C167.1 77.3034 164.341 79.6898 164.223 79.788C163.997 79.9865 163.704 80.0918 163.403 80.0827C163.102 80.0736 162.816 79.9507 162.602 79.7389C162.5 79.6366 162.42 79.5141 162.367 79.3792C162.314 79.2443 162.289 79.0999 162.295 78.9551C162.3 78.8103 162.336 78.6682 162.399 78.5378C162.462 78.4073 162.551 78.2914 162.661 78.1971C163.989 77.102 165.665 76.5188 167.385 76.553C169.106 76.5872 170.757 77.2367 172.04 78.3837C172.155 78.4715 172.25 78.5819 172.32 78.7082C172.39 78.8345 172.433 78.9738 172.447 79.1176C172.461 79.2614 172.445 79.4064 172.4 79.5437C172.356 79.6811 172.283 79.8077 172.187 79.9157C172.076 80.04 171.94 80.1393 171.787 80.207C171.635 80.2747 171.47 80.3093 171.303 80.3085Z" fill="#263238"/>
<path d="M173.641 86.7901C173.643 88.0219 173.279 89.2267 172.596 90.2519C171.913 91.277 170.941 92.0766 169.804 92.5494C168.666 93.0221 167.414 93.1468 166.206 92.9077C164.997 92.6686 163.887 92.0763 163.015 91.206C162.144 90.3356 161.55 89.2262 161.309 88.0182C161.068 86.8102 161.19 85.5578 161.661 84.4195C162.132 83.2812 162.93 82.3082 163.954 81.6237C164.978 80.9391 166.183 80.5737 167.414 80.5737C169.064 80.5737 170.646 81.2283 171.814 82.3938C172.981 83.5593 173.638 85.1405 173.641 86.7901V86.7901Z" stroke="#263238" stroke-linecap="round" stroke-linejoin="round"/>
<path d="M161.306 87.4677L159.381 86.6624" stroke="#263238" stroke-linecap="round" stroke-linejoin="round"/>
<path d="M189.54 85.6902C189.54 86.922 189.175 88.1262 188.49 89.1503C187.806 90.1744 186.833 90.9724 185.694 91.4434C184.556 91.9144 183.304 92.0371 182.096 91.796C180.888 91.555 179.778 90.961 178.908 90.0893C178.037 89.2176 177.445 88.1072 177.206 86.8988C176.967 85.6904 177.092 84.4382 177.564 83.3007C178.037 82.1632 178.837 81.1914 179.862 80.5085C180.887 79.8255 182.092 79.462 183.324 79.4639C184.973 79.4665 186.554 80.1237 187.72 81.291C188.885 82.4584 189.54 84.0406 189.54 85.6902V85.6902Z" stroke="#263238" stroke-linecap="round" stroke-linejoin="round"/>
<path d="M173.641 86.7901C173.834 86.4763 174.112 86.2233 174.442 86.06C174.773 85.8966 175.142 85.8295 175.509 85.8664C175.876 85.9033 176.225 86.0426 176.516 86.2685C176.807 86.4944 177.029 86.7976 177.156 87.1437" stroke="#263238" stroke-linecap="round" stroke-linejoin="round"/>
<path d="M130.803 205.913C130.803 205.913 133.15 187.254 134.142 175.568C135.134 163.881 136.185 137.729 129.232 134.813C122.279 131.896 114.58 134.037 110.946 152.166C107.313 170.294 107.018 211.413 107.018 211.413L130.803 205.913Z" fill="#FBA274" stroke="#263238" stroke-linecap="round" stroke-linejoin="round"/>
<path d="M134.643 215.94C134.643 215.94 167.228 239.402 170.361 239.402C173.493 239.402 184.031 235.699 188.303 236.838C192.575 237.978 197.141 246.806 197.996 247.376C198.85 247.945 200.274 249.654 198.85 250.509C197.426 251.363 188.872 247.661 187.448 247.661C186.651 247.682 185.863 247.485 185.17 247.091L181.468 246.237C181.468 246.237 191.72 251.363 192.575 251.648C193.429 251.933 192.869 253.072 190.012 253.072C187.154 253.072 183.746 251.363 181.752 250.793C179.675 249.953 177.442 249.565 175.202 249.654C171.215 249.654 163.81 245.667 163.81 245.667C163.81 245.667 131.402 235.356 123.968 233.077C116.534 230.799 110.102 224.887 109.817 224.032C109.532 223.178 126.954 216.225 134.643 215.94Z" fill="white" stroke="#263238" stroke-linecap="round" stroke-linejoin="round"/>
<path d="M183.834 241.69C183.834 241.69 194.745 245.235 197.996 247.405" stroke="#263238" stroke-linecap="round" stroke-linejoin="round"/>
<path d="M185.209 238.675C185.209 238.675 191.475 239.372 194.264 241.925" stroke="#263238" stroke-linecap="round" stroke-linejoin="round"/>
<path d="M129.478 199.56C129.478 199.56 109.699 203.38 106.89 205.373C104.082 207.367 104.661 210.814 105.515 212.808C106.37 214.801 106.37 224.769 109.503 227.047C110.485 227.794 130.008 221.067 133.71 220.173C137.413 219.279 138.061 214.045 136.656 208.919C135.252 203.792 135.174 196.427 129.478 199.56Z" fill="#FBA274" stroke="#263238" stroke-linecap="round" stroke-linejoin="round"/>
<path d="M221.604 154.748C221.604 154.748 215.908 163.862 215.624 168.713C215.339 173.565 216.478 173.84 218.471 175.263C220.465 176.687 229.579 180.675 235.559 181.244C241.54 181.814 247.236 169.283 247.521 165.296C247.805 161.308 238.977 155.033 232.711 152.47C226.446 149.907 221.889 152.47 221.604 154.748Z" fill="#FBA274" stroke="#263238" stroke-linecap="round" stroke-linejoin="round"/>
<path d="M210.743 129.971C210.743 129.971 247.197 160.729 251.184 167.289C255.171 173.849 248.336 179.535 243.209 179.82C238.083 180.105 234.096 174.694 228.97 169.018C223.843 163.341 204.85 133.389 204.85 133.389L210.743 129.971Z" fill="white" stroke="#263238" stroke-linecap="round" stroke-linejoin="round"/>
<path d="M205.086 116.586C205.086 116.586 200.245 130.825 200.245 133.104C200.245 135.382 203.377 136.806 206.225 136.806C209.073 136.806 211.636 132.819 213.345 127.968C215.054 123.116 217.048 117.165 215.054 115.721C213.06 114.278 205.656 115.446 205.086 116.586Z" fill="white" stroke="#263238" stroke-linecap="round" stroke-linejoin="round"/>
<path d="M203.947 120.858L215.054 121.997" stroke="#263238" stroke-linecap="round" stroke-linejoin="round"/>
<path d="M202.808 126.269L213.345 127.978" stroke="#263238" stroke-linecap="round" stroke-linejoin="round"/>
<path d="M201.099 130.256L210.782 132.534" stroke="#263238" stroke-linecap="round" stroke-linejoin="round"/>
<path d="M210.448 112.117C209.809 112.097 209.172 112.028 208.543 111.911C206.314 111.479 201.295 110.752 201.089 112.785C200.824 115.407 201.089 117.371 202.955 117.371H211.194C213.591 117.371 214.386 115.731 213.856 113.767C213.492 112.402 211.577 112.147 210.448 112.117Z" fill="white" stroke="#263238" stroke-linecap="round" stroke-linejoin="round"/>
<path d="M165.568 119.443C165.399 121.889 165.399 124.344 165.568 126.789" stroke="#263238" stroke-miterlimit="10"/>
<path d="M196.778 132.888H187.998C186.711 132.887 185.467 132.424 184.493 131.582C183.52 130.74 182.881 129.575 182.695 128.302L180.662 108.533H204.114L202.091 128.302C201.902 129.576 201.262 130.74 200.287 131.582C199.312 132.424 198.066 132.888 196.778 132.888Z" fill="white" stroke="#263238" stroke-linecap="round" stroke-linejoin="round"/>
<path opacity="0.37" d="M192.909 108.091C192.663 106.893 191.386 105.538 190.11 103.829C187.782 100.725 225.749 102.66 230.374 101.118C234.999 99.5764 229.215 99.5666 228.41 96.0803C227.605 92.594 237.71 96.4633 247.776 95.6875C257.842 94.9117 254.366 92.2012 241.579 89.4907C228.793 86.7803 215.624 90.6495 220.278 94.9117C224.933 99.1738 217.951 97.632 202.454 97.632C186.957 97.632 186.182 100.342 184.64 105.763C184.387 106.635 183.929 107.433 183.304 108.091H192.909Z" fill="white"/>
</svg>
