<svg width="276" height="449" viewBox="0 0 276 449" fill="none" xmlns="http://www.w3.org/2000/svg">
<path d="M82.021 317.816C82.021 317.816 82.718 337.964 87.5807 350.704C92.4435 363.445 113.288 399.575 118.378 408.603C123.468 417.632 124.862 420.177 124.862 420.177C120.818 425.156 117.031 430.339 113.515 435.705C110.047 441.492 103.79 444.507 105.184 446.825C106.578 449.143 108.199 448.899 115.606 447.052C123.014 445.204 125.332 441.022 131.362 436.159C137.392 431.296 142.238 431.069 142.465 427.357C142.692 423.646 135.057 416.708 133.436 412.299C131.816 407.89 122.56 388.455 117.227 367.367C111.894 346.279 106.805 339.585 106.578 337.04C106.351 334.495 108.653 318.497 108.653 318.497L82.021 317.816Z" fill="#FFE5CD"/>
<path d="M82.021 317.816C82.021 317.816 82.718 337.964 87.5807 350.704C92.4435 363.445 113.288 399.575 118.378 408.603C123.468 417.632 124.862 420.177 124.862 420.177C120.818 425.156 117.031 430.339 113.515 435.705C110.047 441.492 103.79 444.507 105.184 446.825C106.578 449.143 108.199 448.899 115.606 447.052C123.014 445.204 125.332 441.022 131.362 436.159C137.392 431.296 142.238 431.069 142.465 427.357C142.692 423.646 135.057 416.708 133.436 412.299C131.816 407.89 122.56 388.455 117.227 367.367C111.894 346.279 106.805 339.585 106.578 337.04C106.351 334.495 108.653 318.497 108.653 318.497L82.021 317.816Z" stroke="#263238" stroke-width="0.75" stroke-linecap="round" stroke-linejoin="round"/>
<path d="M142.4 427.358C142.53 425.445 140.536 422.657 138.364 419.804L127.585 429.222C127.585 429.222 126.418 425.98 125.04 422.965C124.804 422.312 124.375 421.746 123.808 421.344C120.109 425.92 116.652 430.687 113.451 435.624C109.982 441.411 103.725 444.426 105.119 446.744C106.513 449.062 108.134 448.819 115.542 446.971C122.949 445.123 125.267 440.941 131.297 436.078C137.327 431.215 142.173 431.07 142.4 427.358Z" fill="#263238" stroke="#263238" stroke-width="0.75" stroke-linecap="round" stroke-linejoin="round"/>
<path d="M134.993 315.725C137.477 323.314 141.065 330.496 145.642 337.04C153.747 349.083 185.711 382.896 188.726 387.288C191.741 391.681 197.074 410.224 199.148 416.708C201.223 423.192 207.723 420.647 210.041 412.299C212.359 403.952 199.392 385.441 196.831 381.729C194.269 378.017 180.621 361.354 172.29 340.963C163.958 320.572 159.079 309.014 159.079 309.014C159.079 309.014 138.234 313.18 134.993 315.725Z" fill="#FFE5CD"/>
<path opacity="0.5" d="M196.831 381.729C194.286 378.033 180.621 361.354 172.29 340.963C163.958 320.572 159.079 309.014 159.079 309.014C159.079 309.014 138.234 313.18 134.993 315.725C136.473 320.376 138.428 324.863 140.828 329.114C146.317 328.657 151.699 327.339 156.778 325.207C156.778 325.207 168.691 352.017 177.136 363.931C181.61 370.253 191.287 378.827 199.375 385.473C198.257 383.787 197.333 382.458 196.831 381.729Z" fill="#FFE5CD"/>
<path d="M134.993 315.725C137.477 323.314 141.065 330.496 145.642 337.04C153.747 349.083 185.711 382.896 188.726 387.288C191.741 391.681 197.074 410.224 199.148 416.708C201.223 423.192 207.723 420.647 210.041 412.299C212.359 403.952 199.392 385.441 196.831 381.729C194.269 378.017 180.621 361.354 172.29 340.963C163.958 320.572 159.079 309.014 159.079 309.014C159.079 309.014 138.234 313.18 134.993 315.725Z" stroke="#263238" stroke-width="0.75" stroke-linecap="round" stroke-linejoin="round"/>
<path d="M199.149 416.708C201.24 423.192 207.723 420.647 210.041 412.299C212.359 403.951 199.392 385.44 196.831 381.729L196.15 380.772C197.285 383.803 198.452 386.834 198.452 386.834C197.75 386.102 196.856 385.582 195.873 385.336C194.889 385.089 193.856 385.125 192.892 385.44C189.196 386.364 191.044 391.924 191.044 391.924V392.07C193.962 399.397 197.528 411.667 199.149 416.708Z" fill="#263238" stroke="#263238" stroke-width="0.75" stroke-linecap="round" stroke-linejoin="round"/>
<path d="M43.1189 268.572C43.1189 268.572 46.7173 260.371 60.1061 257.972C73.4949 255.573 90.3848 269.318 97.2575 271.766C104.13 274.213 107.956 229.962 101.099 188.402C94.2426 146.842 84.6144 143.778 70.1882 163.002C55.762 182.226 44.5129 256.902 43.1189 268.572Z" fill="#263238" stroke="#263238" stroke-width="0.75" stroke-linecap="round" stroke-linejoin="round"/>
<path d="M229.524 148.965C209.846 110.971 195.242 105.881 183.442 97.0957C171.642 88.3103 170.928 88.0672 160.976 80.8865C151.023 73.7059 131.297 65.3419 124.165 63.4941C122.169 62.9229 120.062 62.8625 118.037 63.3185C116.012 63.7745 114.134 64.7323 112.575 66.1038C112.575 66.1038 102.38 69.3456 89.8824 82.0212C77.3852 94.6967 88.0184 105.411 88.0184 105.411C88.0184 105.411 84.7766 119.545 101.229 135.755C117.681 151.964 127.164 199.23 182.275 202.001C237.386 204.773 249.186 186.943 229.524 148.965ZM92.8811 94.5346C88.9909 99.9647 88.9585 102.477 89.3637 103.547C89.514 103.796 89.6819 104.035 89.8662 104.26C89.625 104.084 89.4485 103.833 89.3637 103.547C88.5376 102.083 88.013 100.468 87.8209 98.7973C87.6288 97.127 87.7731 95.4351 88.2453 93.8214C89.8662 87.1108 102.607 80.6272 102.607 80.6272C102.607 80.6272 98.6354 86.4301 92.8487 94.5346H92.8811Z" fill="#263238" stroke="#263238" stroke-width="0.75" stroke-linecap="round" stroke-linejoin="round"/>
<path d="M112.818 125.105C109.925 125.143 107.041 124.755 104.26 123.954C98.9271 122.56 94.5344 123.954 88.7315 130.665C82.9286 137.376 75.9911 155.449 75.9911 168.886C75.9911 182.324 84.3388 198.063 84.3388 198.063C84.3388 198.063 75.0672 211.273 71.3715 236.284C67.6758 261.295 73.2193 321.739 73.2193 321.739C73.2193 321.739 97.7762 327.541 123.014 323.359C138.649 320.697 153.894 316.107 168.4 309.695C168.4 309.695 169.323 282.61 157.734 246.933C151.742 227.908 144.784 209.2 136.889 190.882C136.889 190.882 142.919 167.022 143.146 150.813C143.373 134.604 137.586 129.271 133.193 127.196C128.801 125.121 112.818 125.105 112.818 125.105Z" fill="#FBA274"/>
<path d="M112.818 125.105C109.925 125.143 107.041 124.755 104.26 123.954C98.9271 122.56 94.5344 123.954 88.7315 130.665C82.9286 137.376 75.9911 155.449 75.9911 168.886C75.9911 182.324 84.3388 198.063 84.3388 198.063C84.3388 198.063 75.0672 211.273 71.3715 236.284C67.6758 261.295 73.2193 321.739 73.2193 321.739C73.2193 321.739 97.7762 327.541 123.014 323.359C138.649 320.697 153.894 316.107 168.4 309.695C168.4 309.695 169.323 282.61 157.734 246.933C151.742 227.908 144.784 209.2 136.889 190.882C136.889 190.882 142.919 167.022 143.146 150.813C143.373 134.604 137.586 129.271 133.193 127.196C128.801 125.121 112.818 125.105 112.818 125.105Z" stroke="#263238" stroke-width="0.75" stroke-linecap="round" stroke-linejoin="round"/>
<path d="M106.513 175.824C106.513 175.824 110.209 187.17 120.177 192.276" stroke="#263238" stroke-width="0.75" stroke-linecap="round" stroke-linejoin="round"/>
<path d="M110.906 108.896C110.366 113.885 109.201 118.786 107.437 123.484C104.892 129.271 103.271 127.893 100.953 138.315C98.6354 148.738 106.513 162.629 115.315 156.842C124.116 151.056 129.676 139.239 129.206 134.83C128.736 130.422 126.661 129.514 126.661 123.484C126.729 119.495 127.273 115.528 128.282 111.668C128.282 111.668 116.239 112.591 110.906 108.896Z" fill="#FFE5CD"/>
<path d="M110.906 108.896C110.366 113.885 109.201 118.786 107.437 123.484C104.892 129.271 103.271 127.893 100.953 138.315C98.6354 148.738 106.513 162.629 115.315 156.842C124.116 151.056 129.676 139.239 129.206 134.83C128.736 130.422 126.661 129.514 126.661 123.484C126.729 119.495 127.273 115.528 128.282 111.668C128.282 111.668 116.239 112.591 110.906 108.896Z" stroke="#263238" stroke-width="0.75" stroke-linecap="round" stroke-linejoin="round"/>
<path d="M117.86 50.0567C117.86 50.0567 104.649 88.2779 103.725 98.2466C103.507 100.774 103.81 103.318 104.614 105.724C105.418 108.129 106.707 110.345 108.401 112.233C110.094 114.121 112.157 115.642 114.461 116.701C116.765 117.761 119.263 118.337 121.798 118.395C133.145 118.621 142.173 105.427 142.173 105.427C142.173 105.427 146.809 109.139 152.823 104.973C158.836 100.808 172.792 63.9642 172.792 63.9642C172.792 63.9642 165.612 51.6776 147.312 48.2089C129.011 44.7401 117.86 50.0567 117.86 50.0567Z" fill="#FFE5CD"/>
<path opacity="0.5" d="M147.263 48.2086C144.053 47.5981 140.802 47.2242 137.537 47.0902L132.042 66.5412C132.042 66.5412 139.969 89.4772 139.482 95.9284C138.996 102.38 133.518 114.78 119.124 114.78C115.718 114.807 112.337 114.197 109.155 112.98C112.509 116.398 117.075 118.355 121.863 118.427C133.21 118.654 142.238 105.459 142.238 105.459C142.238 105.459 146.874 109.171 152.887 105.006C158.901 100.84 172.792 63.964 172.792 63.964C172.792 63.964 165.563 51.6774 147.263 48.2086Z" fill="#FFE5CD"/>
<path d="M117.86 50.0567C117.86 50.0567 104.649 88.2779 103.725 98.2466C103.507 100.774 103.81 103.318 104.614 105.724C105.418 108.129 106.707 110.345 108.401 112.233C110.094 114.121 112.157 115.642 114.461 116.701C116.765 117.761 119.263 118.337 121.798 118.395C133.145 118.621 142.173 105.427 142.173 105.427C142.173 105.427 146.809 109.139 152.823 104.973C158.836 100.808 172.792 63.9642 172.792 63.9642C172.792 63.9642 165.612 51.6776 147.312 48.2089C129.011 44.7401 117.86 50.0567 117.86 50.0567Z" stroke="#263238" stroke-width="0.75" stroke-linecap="round" stroke-linejoin="round"/>
<path d="M124.343 78.5524C123.651 80.908 122.07 82.9019 119.934 84.1121C116.465 85.96 113.45 85.733 114.618 87.5809C115.685 88.8687 117.15 89.7642 118.783 90.1257" stroke="#263238" stroke-width="0.75" stroke-linecap="round" stroke-linejoin="round"/>
<path d="M116.465 94.0645C118.355 95.4508 120.609 96.2562 122.949 96.3824C125.734 96.5989 128.51 95.8678 130.827 94.3076C130.827 94.3076 123.646 102.639 119.934 102.639C116.222 102.639 116.465 94.0645 116.465 94.0645Z" fill="#263238"/>
<path d="M128.509 80.6431C128.509 80.6431 132.675 76.2342 135.917 81.5671" stroke="#263238" stroke-width="0.75" stroke-linecap="round" stroke-linejoin="round"/>
<path d="M115.315 78.5522C115.718 78.1199 116.224 77.7977 116.787 77.6162C117.349 77.4347 117.949 77.3999 118.529 77.5152C119.108 77.6305 119.649 77.892 120.099 78.2749C120.549 78.6578 120.894 79.1494 121.101 79.7031" stroke="#263238" stroke-width="0.75" stroke-linecap="round" stroke-linejoin="round"/>
<path d="M114.439 73.6896C114.992 72.5161 115.883 71.5351 116.998 70.8734C118.114 70.2117 119.402 69.8997 120.696 69.9777" stroke="#263238" stroke-width="0.75" stroke-linecap="round" stroke-linejoin="round"/>
<path d="M130.13 70.2209C130.13 70.2209 132.674 69.2807 134.992 73.9165" stroke="#263238" stroke-width="0.75" stroke-linecap="round" stroke-linejoin="round"/>
<path d="M131.978 66.509C131.978 66.509 138.461 80.4003 144.491 94.9885C150.521 109.577 175.062 127.65 179.276 128.817C183.491 129.984 196.879 107.502 196.879 107.502C196.879 107.502 173.376 90.9038 164.753 83.6907C156.129 76.4777 146.582 68.8269 131.978 66.509Z" fill="#263238" stroke="#263238" stroke-width="0.75" stroke-linecap="round" stroke-linejoin="round"/>
<path d="M117.681 62.3431L91.2926 45.4369C91.2926 45.4369 123.711 31.9995 131.816 24.5919C131.816 24.5919 184.155 58.6312 203.379 60.9491C203.379 60.9491 173.976 72.2955 160.538 75.5373L117.681 62.3431Z" fill="black" stroke="#263238" stroke-width="0.75" stroke-linecap="round" stroke-linejoin="round"/>
<path d="M172.792 63.9642C172.792 63.9642 165.612 51.6776 147.311 48.2089C129.011 44.7401 117.908 50.0567 117.908 50.0567C117.908 50.0567 115.444 57.1887 112.575 66.1038C120.664 64.2555 129.117 64.819 136.889 67.7247C148.235 71.5825 158.496 78.7956 164.753 83.7556C169.08 73.6735 172.792 63.9642 172.792 63.9642Z" fill="black" stroke="#263238" stroke-width="0.75" stroke-linecap="round" stroke-linejoin="round"/>
<path d="M91.228 45.437C91.228 45.437 89.3639 58.8581 79.6384 57.4804C69.9129 56.1026 73.3817 43.1191 84.5012 32.6966C95.6207 22.2741 90.531 10.0037 83.1072 7.91272" stroke="#263238" stroke-width="0.75" stroke-linecap="round" stroke-linejoin="round"/>
<path d="M84.971 8.3665C84.971 8.3665 81.956 5.59473 74.7754 4.67081C67.5947 3.74689 56.0214 1.42899 56.4752 2.35291C56.9291 3.27683 56.7022 5.59475 57.1722 7.21566C57.6423 8.83658 58.5662 10.9276 61.1111 10.9276C63.6559 10.9276 81.2591 10.4575 83.35 10.4575C85.441 10.4575 84.971 8.3665 84.971 8.3665Z" fill="#263238" stroke="#263238" stroke-width="0.75" stroke-linecap="round" stroke-linejoin="round"/>
<path d="M232.766 67.6598C232.766 67.6598 235.084 89.8988 239.72 100.321C244.356 110.744 250.742 133.048 249.673 145.707C248.911 154.898 245.734 156.129 243.189 156.129C240.644 156.129 232.475 150.537 227.207 140.374C217.368 121.426 220.269 107.486 223.268 96.3662C226.267 85.2468 232.766 67.6598 232.766 67.6598Z" fill="#263238"/>
<path opacity="0.3" d="M232.766 67.6598C232.766 67.6598 235.084 89.8988 239.72 100.321C244.356 110.744 250.483 132.286 249.672 145.707C249.121 154.914 245.734 156.129 243.189 156.129C240.644 156.129 236.008 159.825 227.207 140.374C218.405 120.923 220.269 107.486 223.268 96.3662C226.266 85.2468 232.766 67.6598 232.766 67.6598Z" fill="#FFE5CD" stroke="#263238" stroke-width="0.75" stroke-linecap="round" stroke-linejoin="round"/>
<path d="M232.766 67.6598C232.766 67.6598 235.084 89.8988 239.72 100.321C244.356 110.744 250.742 133.048 249.673 145.707C248.911 154.898 245.734 156.129 243.189 156.129C240.644 156.129 232.475 150.537 227.207 140.374C217.368 121.426 220.269 107.486 223.268 96.3662C226.267 85.2468 232.766 67.6598 232.766 67.6598Z" stroke="#263238" stroke-width="0.75" stroke-linecap="round" stroke-linejoin="round"/>
<path d="M232.961 70.4479C232.961 70.4479 247.792 50.5268 250.564 44.9671C253.336 39.4073 257.745 33.6206 260.987 33.1506C264.228 32.6805 272.576 39.6342 273.03 44.0431C273.484 48.452 268.41 53.7686 264.228 55.6165C261.515 56.7224 258.527 56.9657 255.67 56.3135C255.67 56.3135 243.626 78.0824 236.9 88.278C230.173 98.4735 226.25 103.109 224.856 104.26C223.462 105.411 219.994 99.8675 222.085 92.2168C224.176 84.5661 232.961 70.4479 232.961 70.4479Z" fill="#FFE5CD" stroke="#263238" stroke-width="0.75" stroke-linecap="round" stroke-linejoin="round"/>
<path d="M268.799 35.5495C268.799 35.5495 263.937 42.8436 264.455 44.2214C264.974 45.5992 266.627 47.4632 267.616 46.1989C268.605 44.9346 272.479 39.4883 272.349 37.3163C272.219 35.1442 270.566 34.5607 268.799 35.5495Z" fill="#FFE5CD" stroke="#263238" stroke-width="0.75" stroke-linecap="round" stroke-linejoin="round"/>
<path d="M272.219 39.1965C272.219 39.1965 267.891 45.6802 268.41 46.831C268.929 47.9819 270.307 49.6028 271.182 48.5654C272.057 47.528 275.51 42.6653 275.331 40.7526C275.153 38.8399 273.775 38.3374 272.219 39.1965Z" fill="#FFE5CD" stroke="#263238" stroke-width="0.75" stroke-linecap="round" stroke-linejoin="round"/>
<path d="M265.185 30.8326C265.185 30.8326 259.382 39.4073 260.079 41.0282C260.776 42.6491 262.624 44.7401 263.791 43.3461C264.958 41.9521 269.577 35.4684 269.35 32.9236C269.123 30.3788 267.243 29.6818 265.185 30.8326Z" fill="#FFE5CD" stroke="#263238" stroke-width="0.75" stroke-linecap="round" stroke-linejoin="round"/>
<path d="M260.759 27.1369C260.759 27.1369 254.973 35.6953 255.67 37.3325C256.367 38.9696 258.215 41.0282 259.366 39.6342C260.516 38.2402 265.168 31.7727 264.925 29.2117C264.682 26.6506 262.85 25.9698 260.759 27.1369Z" fill="#FFE5CD" stroke="#263238" stroke-width="0.75" stroke-linecap="round" stroke-linejoin="round"/>
<path d="M250.337 47.7549C250.337 47.7549 256.594 31.7727 257.988 31.7727C259.382 31.7727 267.016 36.1654 267.47 38.2564C267.924 40.3474 267.47 40.5743 266.092 40.8012C264.714 41.0282 260.305 38.4833 260.305 38.4833C260.305 38.4833 262.38 43.3461 259.365 46.8148C256.35 50.2836 253.806 50.5267 253.806 50.5267" fill="#FFE5CD"/>
<path d="M250.337 47.7549C250.337 47.7549 256.594 31.7727 257.988 31.7727C259.382 31.7727 267.016 36.1654 267.47 38.2564C267.924 40.3474 267.47 40.5743 266.092 40.8012C264.714 41.0282 260.305 38.4833 260.305 38.4833C260.305 38.4833 262.38 43.3461 259.365 46.8148C256.35 50.2836 253.806 50.5267 253.806 50.5267" stroke="#263238" stroke-width="0.75" stroke-linecap="round" stroke-linejoin="round"/>
<path d="M42.7949 48.2575C42.7949 48.2575 30.6056 26.6345 28.547 20.702C26.4884 14.7694 22.8576 8.54508 19.6968 7.73462C16.536 6.92416 7.39404 12.7109 6.37286 17.0225C5.35168 21.3341 9.74438 27.2505 13.6508 29.617C16.1966 31.0712 19.1269 31.7105 22.0471 31.4486C22.0471 31.4486 31.2539 54.5629 36.6354 65.4879C42.0168 76.4129 45.3235 81.535 46.5554 82.8641C47.7873 84.1933 51.9368 79.1036 50.8346 71.2584C49.7324 63.4131 42.7949 48.2575 42.7949 48.2575Z" fill="#FFE5CD" stroke="#263238" stroke-width="0.75" stroke-linecap="round" stroke-linejoin="round"/>
<path d="M11.657 9.12845C11.657 9.12845 15.6282 16.9899 14.8988 18.2866C14.1694 19.5834 12.3378 21.1395 11.5111 19.9076C10.6844 18.6757 7.47501 12.6296 7.94507 10.5062C8.41514 8.38283 10.0198 7.92897 11.657 9.12845Z" fill="#FFE5CD" stroke="#263238" stroke-width="0.75" stroke-linecap="round" stroke-linejoin="round"/>
<path d="M7.79914 12.3218C7.79914 12.3218 11.2841 19.2269 10.6195 20.4264C9.95494 21.6259 8.38265 22.9388 7.65324 21.8042C6.92382 20.6695 4.08722 15.4015 4.50865 13.5375C4.93009 11.6734 6.35652 11.2682 7.79914 12.3218Z" fill="#FFE5CD" stroke="#263238" stroke-width="0.75" stroke-linecap="round" stroke-linejoin="round"/>
<path d="M15.8551 4.91403C15.8551 4.91403 20.5071 14.137 19.6156 15.6607C18.7241 17.1844 16.6331 19.016 15.6444 17.4923C14.6556 15.9687 10.8951 8.95011 11.4462 6.4539C11.9973 3.95768 13.9424 3.50383 15.8551 4.91403Z" fill="#FFE5CD" stroke="#263238" stroke-width="0.75" stroke-linecap="round" stroke-linejoin="round"/>
<path d="M20.6855 1.7857C20.6855 1.7857 25.3537 11.0249 24.446 12.5486C23.5383 14.0723 21.4635 15.9039 20.491 14.3802C19.5184 12.8566 15.7255 5.83801 16.2766 3.34179C16.8277 0.845582 18.8052 0.375505 20.6855 1.7857Z" fill="#FFE5CD" stroke="#263238" stroke-width="0.75" stroke-linecap="round" stroke-linejoin="round"/>
<path d="M28.4173 23.5545C28.4173 23.5545 24.2354 6.90767 22.8576 6.74558C21.4798 6.58348 13.3428 9.98743 12.6134 11.9812C11.884 13.9749 12.3216 14.2666 13.6832 14.6719C15.0448 15.0771 19.713 13.0509 19.713 13.0509C19.713 13.0509 17.0385 17.6057 19.5833 21.4311C22.1282 25.2565 24.6244 25.8076 24.6244 25.8076" fill="#FFE5CD"/>
<path d="M28.4173 23.5545C28.4173 23.5545 24.2354 6.90767 22.8576 6.74558C21.4798 6.58348 13.3428 9.98743 12.6134 11.9812C11.884 13.9749 12.3216 14.2666 13.6832 14.6719C15.0448 15.0771 19.713 13.0509 19.713 13.0509C19.713 13.0509 17.0385 17.6057 19.5833 21.4311C22.1282 25.2565 24.6244 25.8076 24.6244 25.8076" stroke="#263238" stroke-width="0.75" stroke-linecap="round" stroke-linejoin="round"/>
<path d="M141.995 125.105C141.995 125.105 138.056 117.697 133.193 118.848C128.331 119.999 122.998 136.224 122.998 157.75C122.998 179.276 135.511 221.906 145.691 248.522C155.87 275.137 158.431 313.844 157.507 337.931C156.583 362.018 152.417 365.26 153.568 366.411C154.719 367.562 159.128 367.805 183.458 357.155C207.788 346.506 207.302 335.143 207.302 335.143L203.136 318.934C203.136 318.934 211.71 315.919 226.769 316.162C241.827 316.406 256.172 307.361 256.642 294.847C257.112 282.334 240.433 267.292 233.479 261.489C226.526 255.686 243.788 243.075 207.999 220.496C188.872 208.436 178.822 187.834 174.413 179.033C170.004 170.231 170.717 165.142 175.337 161.203C179.957 157.264 199.44 150.083 212.164 150.78C224.889 151.477 243.205 156.113 243.205 156.113C243.205 156.113 228.147 148.705 227.45 119.513C227.021 102.067 228.813 84.6373 232.782 67.6434C232.782 67.6434 226.769 73.2032 215.649 83.3987C204.53 93.5943 205.227 96.1392 196.425 96.1392C187.624 96.1392 179.746 97.987 176.974 105.168C174.202 112.348 170.961 116.514 164.25 116.287C157.539 116.06 155.448 111.651 148.949 116.514C142.449 121.377 141.995 125.105 141.995 125.105Z" fill="black" stroke="#263238" stroke-width="0.75" stroke-linecap="round" stroke-linejoin="round"/>
<path d="M141.995 125.105C141.995 125.105 133.193 144.329 135.511 173.732C137.829 203.136 151.72 237.418 170.717 259.43C189.715 281.442 201.742 316.406 201.742 316.406" stroke="#263238" stroke-width="0.75" stroke-linecap="round" stroke-linejoin="round"/>
<path d="M160.003 185.549C160.003 185.549 166.26 211.727 183.863 233.496C201.466 255.265 229.719 260.824 229.719 260.824" stroke="#263238" stroke-width="0.75" stroke-linecap="round" stroke-linejoin="round"/>
<path d="M155.141 155.448C155.141 155.448 152.369 164.023 158.853 177.914C165.336 191.806 166.957 193.67 166.957 193.67" stroke="#263238" stroke-width="0.75" stroke-linecap="round" stroke-linejoin="round"/>
<path d="M174.413 161.462C170.314 165.124 166.938 169.523 164.461 174.429" stroke="#263238" stroke-width="0.75" stroke-linecap="round" stroke-linejoin="round"/>
<path d="M212.116 150.813C214.499 150.943 217.076 151.218 219.685 151.559C217.579 150.689 215.72 149.313 214.275 147.551C212.83 145.789 211.843 143.696 211.403 141.46C209.036 132.432 216.363 107.421 219.507 96.7878C221.424 90.2429 222.577 83.4983 222.944 76.6885L216.136 82.9452C215.586 87.0397 214.73 91.0871 213.575 95.0535C207.885 114.423 202.974 133.647 205.47 143.033C206.166 145.822 207.369 148.459 209.02 150.813C210.073 150.764 211.111 150.764 212.116 150.813Z" fill="#263238"/>
<path d="M101.472 125.575C101.472 125.575 103.79 118.151 99.1541 114.456C94.5182 110.76 89.6717 116.304 89.6717 116.304C85.5077 113.788 82.1978 110.077 80.1731 105.654C76.2343 97.7765 80.8701 92.6868 71.8254 81.3404C62.7807 69.994 57.0102 66.5252 59.3281 55.8758C61.646 45.2264 71.3715 37.3487 64.4178 32.7129C57.4641 28.077 40.5579 28.304 28.0606 42.4384C15.5634 56.5728 16.9412 64.4342 12.0784 69.767C7.21565 75.0998 -3.44998 81.8104 3.03368 92.2329C9.51735 102.655 20.4099 106.594 30.5893 108.215C40.7686 109.836 55.3731 122.106 58.6149 135.771C61.8568 149.435 57.691 165.417 51.4343 178.401C45.1775 191.384 27.5744 208.501 22.2578 234.906C16.9412 261.311 33.6042 274.975 36.6191 285.398C39.634 295.82 43.7997 322.452 38.937 337.51C35.933 346.594 29.6275 354.218 21.269 358.874C21.269 358.874 27.9958 368.826 44.6588 370.674C61.3218 372.522 64.5799 370.674 65.9739 363.493C67.3679 356.313 68.9888 332.226 63.429 306.518C57.8693 280.81 45.8259 269.237 53.7035 246.544C61.5812 223.851 68.9888 196.507 77.5472 176.585C86.1057 156.664 101.472 125.575 101.472 125.575Z" fill="black" stroke="#263238" stroke-width="0.75" stroke-linecap="round" stroke-linejoin="round"/>
<path d="M67.8217 114.213C67.8217 114.213 72.4575 114.683 69.9127 126.499C67.3679 138.316 58.5663 159.614 58.5663 159.614" stroke="#263238" stroke-width="0.75" stroke-linecap="round" stroke-linejoin="round"/>
<path d="M36.1005 283.291C36.1005 283.291 31.2378 275.186 33.7826 254.811C36.3275 234.436 46.3609 208.031 54.4655 184.625C62.5701 161.219 66.2658 152.434 66.2658 152.434" stroke="#263238" stroke-width="0.75" stroke-linecap="round" stroke-linejoin="round"/>
<path d="M90.7577 118.394C90.7577 118.394 90.7577 122.787 79.8652 145.253C68.9726 167.719 63.4291 186.246 63.2021 199.456" stroke="#263238" stroke-width="0.75" stroke-linecap="round" stroke-linejoin="round"/>
<path d="M23.4248 79.7192C25.3699 78.0983 27.3799 76.4774 29.1953 74.7754C34.3984 69.9127 36.4732 64.2557 38.3048 59.3443C39.9258 55.0813 41.2549 51.3856 44.4157 49.0839C48.2086 46.2797 55.6487 49.246 60.479 51.8719C61.2403 49.9459 62.1172 48.0676 63.1049 46.2473C57.3668 43.1352 47.4792 39.1477 40.7524 44.1077C36.1166 47.5116 34.2688 52.423 32.502 57.1885C30.881 61.6784 29.098 66.3305 24.9323 70.2855C23.3114 71.9064 21.4473 73.349 19.5184 74.9375C13.7966 79.622 7.13461 85.1007 4.16833 93.9833C5.6067 95.9792 7.28933 97.787 9.17696 99.3647C10.7006 90.1741 16.925 85.0521 23.4248 79.7192Z" fill="#263238"/>
</svg>
